<?xml version="1.0" encoding="UTF-8" standalone="no"?>
<svg
   viewBox="0 0 36 36"
   version="1.1"
   id="svg12"
   sodipodi:docname="logo.svg"
   inkscape:version="1.4 (86a8ad7, 2024-10-11)"
   xmlns:inkscape="http://www.inkscape.org/namespaces/inkscape"
   xmlns:sodipodi="http://sodipodi.sourceforge.net/DTD/sodipodi-0.dtd"
   xmlns="http://www.w3.org/2000/svg"
   xmlns:svg="http://www.w3.org/2000/svg">
  <defs
     id="defs12" />
  <sodipodi:namedview
     id="namedview12"
     pagecolor="#ffffff"
     bordercolor="#000000"
     borderopacity="0.25"
     inkscape:showpageshadow="2"
     inkscape:pageopacity="0.0"
     inkscape:pagecheckerboard="0"
     inkscape:deskcolor="#d1d1d1"
     inkscape:zoom="22.416667"
     inkscape:cx="17.977695"
     inkscape:cy="18"
     inkscape:window-width="1920"
     inkscape:window-height="1009"
     inkscape:window-x="-8"
     inkscape:window-y="-8"
     inkscape:window-maximized="1"
     inkscape:current-layer="svg12" />
  <g
     id="g12"
     transform="matrix(0.74285714,0,0,0.74285714,4.2571429,4.6285715)">
    <path
       fill="#553788"
       d="m 15,31 c 0,2.209 -0.791,4 -3,4 H 5 C 1,35 1,21 5,21 h 7 c 2.209,0 3,1.791 3,4 z"
       id="path1" />
    <path
       fill="#9266cc"
       d="M 34,33 H 33 V 23 h 1 c 0.553,0 1,-0.447 1,-1 0,-0.553 -0.447,-1 -1,-1 H 10 c -4,0 -4,14 0,14 h 24 c 0.553,0 1,-0.447 1,-1 0,-0.553 -0.447,-1 -1,-1 z"
       id="path2" />
    <path
       fill="#ccd6dd"
       d="M 34.172,33 H 11 C 9,33 9,23 11,23 h 23.172 c 1.104,0 1.104,10 0,10 z"
       id="path3" />
    <path
       fill="#99aab5"
       d="M 11.5,25 H 34.85 C 34.715,23.825 34.49,23 34.172,23 H 11 C 9.349,23 9.062,29.808 10.137,32.188 9.745,29.229 10.199,25 11.5,25 Z"
       id="path4" />
    <path
       fill="#226699"
       d="m 12,8 c 0,2.209 -1.791,4 -4,4 H 4 C 0,12 0,1 4,1 h 4 c 2.209,0 4,1.791 4,4 z"
       id="path5" />
    <path
       fill="#55acee"
       d="M 31,10 H 30 V 3 h 1 C 31.553,3 32,2.553 32,2 32,1.447 31.553,1 31,1 H 7 C 3,1 3,12 7,12 h 24 c 0.553,0 1,-0.447 1,-1 0,-0.553 -0.447,-1 -1,-1 z"
       id="path6" />
    <path
       fill="#ccd6dd"
       d="M 31.172,10 H 8 C 6,10 6,3 8,3 h 23.172 c 1.104,0 1.104,7 0,7 z"
       id="path7" />
    <path
       fill="#99aab5"
       d="M 8,5 H 31.925 C 31.811,3.875 31.561,3 31.172,3 H 8 C 6.807,3 6.331,5.489 6.562,7.5 6.718,6.142 7.193,5 8,5 Z"
       id="path8" />
    <path
       fill="#f4900c"
       d="m 20,17 c 0,2.209 -1.791,4 -4,4 H 6 C 2,21 2,12 6,12 h 10 c 2.209,0 4,1.791 4,4 z"
       id="path9" />
    <path
       fill="#ffac33"
       d="m 35,19 h -1 v -5 h 1 c 0.553,0 1,-0.447 1,-1 0,-0.553 -0.447,-1 -1,-1 H 15 c -4,0 -4,9 0,9 h 20 c 0.553,0 1,-0.447 1,-1 0,-0.553 -0.447,-1 -1,-1 z"
       id="path10" />
    <path
       fill="#ccd6dd"
       d="M 35.172,19 H 16 c -2,0 -2,-5 0,-5 h 19.172 c 1.104,0 1.104,5 0,5 z"
       id="path11" />
    <path
       fill="#99aab5"
       d="M 16,16 H 35.984 C 35.919,14.938 35.65,14 35.172,14 H 16 c -1.274,0 -1.733,2.027 -1.383,3.5 C 14.815,16.661 15.274,16 16,16 Z"
       id="path12" />
  </g>
</svg>
